<svg
  width="281"
  height="78"
  viewBox="0 0 281 78"
  fill="none"
  xmlns="http://www.w3.org/2000/svg"
>
<path
    d="M101.314 -150.509C76.6064 -162.91 47.207 -166.012 18.7718 -156.849C-38.6789 -138.338 -70.3726 -76.039 -51.604 -18.6064C-33.0195 38.2645 27.8533 69.775 85.0535 51.8555C98.8565 47.5315 111.192 40.7204 121.725 32.0694C138.846 18.0074 160.226 9.9016 182.369 10.4917C190.758 10.7154 199.327 9.57932 207.783 6.92975C248.966 -5.97215 271.89 -49.8542 258.983 -91.0835C245.81 -133.163 203.154 -152.959 165.279 -143.557C143.791 -138.224 121.109 -140.574 101.314 -150.509Z"
    fill="url(#paint0_linear_236_4581)"
  />
<path
    opacity="0.3"
    d="M6.07825 -154.898C34.2538 -163.976 63.3825 -160.903 87.8657 -148.615C107.879 -138.571 130.807 -136.197 152.52 -141.586C189.926 -150.872 232.027 -131.316 245.028 -89.7845C257.77 -49.0814 235.139 -5.76139 194.484 6.97525C186.135 9.59134 177.677 10.7129 169.396 10.4922C146.989 9.89505 125.378 18.0976 108.09 32.2969C97.6546 40.8677 85.433 47.6162 71.755 51.9011C15.0789 69.6564 -45.238 38.4351 -63.6531 -17.9167C-82.25 -74.8242 -50.8437 -136.557 6.07825 -154.898Z"
    stroke="#FF3300"
    stroke-width="2"
  />
<defs>
<linearGradient
      id="paint0_linear_236_4581"
      x1="344.242"
      y1="-92.7878"
      x2="60.5688"
      y2="-17.5576"
      gradientUnits="userSpaceOnUse"
    >
<stop stop-color="white" />
<stop offset="1" stop-color="#FFE1CD" />
</linearGradient>
</defs>
</svg>
